<svg width="31" height="31" viewBox="0 0 31 31" fill="none" xmlns="http://www.w3.org/2000/svg">
<path d="M2.13839 0H19.1751C25.7002 0 31 5.29977 31 11.8249V19.1751C31 25.7024 25.7002 31 19.1751 31H2.13839C0.959194 31 0 30.0408 0 28.8616V2.13839C0 0.959194 0.959194 0 2.13839 0Z" fill="#004977"/>
<path d="M10.6634 11.3189C8.85504 11.5543 8.36004 12.0515 7.89365 12.5201C7.34805 13.0657 6.84425 13.5695 4.85767 13.6883V6.70335C4.85767 6.26996 5.38126 6.05216 5.68706 6.36016L10.6634 11.3189Z" fill="#FAE67E"/>
<path d="M15.598 16.2359C15.4814 16.2491 15.3692 16.2601 15.2592 16.2733C15.1492 16.2865 15.0436 16.2997 14.938 16.3129C14.8346 16.3261 14.7334 16.3415 14.6344 16.3569C14.5596 16.3679 14.487 16.3789 14.4166 16.3899C14.2032 16.4251 14.0008 16.4625 13.8116 16.5021C13.7566 16.5131 13.7016 16.5241 13.6466 16.5373C13.6158 16.5439 13.585 16.5505 13.5564 16.5571C13.4838 16.5747 13.4112 16.5923 13.343 16.6099C13.266 16.6297 13.1912 16.6495 13.1186 16.6693C13.0086 16.7001 12.903 16.7331 12.8018 16.7661C12.7622 16.7793 12.7204 16.7925 12.6808 16.8057C12.573 16.8431 12.474 16.8827 12.3772 16.9201C12.32 16.9443 12.2628 16.9685 12.21 16.9927C12.1176 17.0323 12.0318 17.0741 11.9526 17.1159C11.8624 17.1621 11.7788 17.2105 11.6996 17.2589C11.6732 17.2743 11.649 17.2897 11.6226 17.3073C11.572 17.3381 11.5258 17.3711 11.4796 17.4041C11.407 17.4547 11.341 17.5075 11.2794 17.5581C11.2442 17.5867 11.2112 17.6153 11.1782 17.6461C11.1518 17.6681 11.1276 17.6923 11.1012 17.7165C11.0858 17.7319 11.0726 17.7451 11.0572 17.7605C11.0396 17.7759 11.022 17.7935 11.0066 17.8111C10.989 17.8287 10.9714 17.8463 10.956 17.8639C10.7932 18.0377 10.6568 18.2115 10.5226 18.3853C10.4742 18.4469 10.428 18.5085 10.3796 18.5701C10.3312 18.6317 10.2828 18.6933 10.23 18.7527C10.1816 18.8121 10.131 18.8715 10.076 18.9287C9.88463 19.1355 9.66244 19.3335 9.37424 19.5139C9.25324 19.5887 9.12124 19.6613 8.97384 19.7295C8.94964 19.7427 8.92324 19.7537 8.89684 19.7647C8.87264 19.7779 8.84624 19.7889 8.81984 19.7977C8.51404 19.9275 8.15105 20.0419 7.70885 20.1387C7.64945 20.1497 7.58785 20.1629 7.52405 20.1761C7.36345 20.2069 7.19185 20.2355 7.00925 20.2619C6.96305 20.2685 6.91685 20.2751 6.86845 20.2817C6.71445 20.3037 6.55386 20.3213 6.38446 20.3389C6.29646 20.3499 6.20626 20.3565 6.11386 20.3653C5.95106 20.3807 5.78166 20.3917 5.60346 20.4027C5.55506 20.4049 5.50886 20.4093 5.45826 20.4115C5.26686 20.4225 5.06666 20.4313 4.85767 20.4379V13.6884C6.84425 13.5696 7.34805 13.0658 7.89365 12.5202C8.36004 12.0516 8.85504 11.5544 10.6634 11.319L15.598 16.2359Z" fill="#00CCCC"/>
<path d="M20.1652 20.7854C16.1172 21.3024 15.0568 22.8776 14.0976 23.8478C13.112 24.8444 11.8932 25.764 9.66023 26.1182H9.65804L6.79145 26.1424C5.72446 26.1512 4.85767 25.291 4.85767 24.2262V20.4378C5.06666 20.4312 5.26686 20.4224 5.45826 20.4114C5.50886 20.4092 5.55506 20.4048 5.60346 20.4026C5.78166 20.3916 5.95106 20.3806 6.11386 20.3652C6.20626 20.3564 6.29646 20.3498 6.38446 20.3388C6.55386 20.3212 6.71445 20.3036 6.86845 20.2816C6.91685 20.275 6.96305 20.2684 7.00925 20.2618C7.19185 20.2354 7.36345 20.2068 7.52405 20.176C7.58785 20.1628 7.64945 20.1496 7.70885 20.1386C8.15104 20.0418 8.51404 19.9274 8.81984 19.7976C8.84624 19.7888 8.87264 19.7778 8.89684 19.7646C8.92324 19.7536 8.94964 19.7426 8.97384 19.7294C9.12124 19.6612 9.25324 19.5908 9.37424 19.5138C9.66243 19.3334 9.88463 19.1354 10.076 18.9286C10.131 18.8714 10.1816 18.812 10.23 18.7526C10.2828 18.6932 10.3312 18.6316 10.3796 18.57C10.428 18.5084 10.4742 18.4468 10.5226 18.3852C10.6568 18.2114 10.7932 18.0376 10.956 17.8638C10.9714 17.8462 10.989 17.8286 11.0066 17.811C11.022 17.7934 11.0396 17.7758 11.0572 17.7604C11.0726 17.745 11.0858 17.7318 11.1012 17.7164C11.1276 17.6922 11.1518 17.668 11.1782 17.646C11.2112 17.6152 11.2442 17.5866 11.2794 17.558C11.341 17.5074 11.407 17.4546 11.4796 17.404C11.5258 17.371 11.572 17.338 11.6226 17.3072C11.649 17.2896 11.6732 17.2742 11.6996 17.2588C11.7788 17.2104 11.8624 17.162 11.9526 17.1158C12.0318 17.074 12.1176 17.0322 12.21 16.9926C12.2628 16.9684 12.32 16.9442 12.3772 16.92C12.474 16.8826 12.573 16.843 12.6808 16.8056C12.7204 16.7924 12.7622 16.7792 12.8018 16.766C12.903 16.733 13.0086 16.7 13.1186 16.6692C13.1912 16.6494 13.266 16.6296 13.343 16.6098C13.4112 16.5922 13.4838 16.5746 13.5564 16.557C13.585 16.5504 13.6158 16.5438 13.6466 16.5372C13.7016 16.524 13.7566 16.513 13.8116 16.502C14.0008 16.4624 14.2032 16.425 14.4166 16.3898C14.487 16.3788 14.5596 16.3678 14.6344 16.3568C14.7334 16.3414 14.8346 16.326 14.938 16.3128C15.0436 16.2996 15.1492 16.2864 15.2592 16.2732C15.3692 16.26 15.4814 16.249 15.598 16.2358H15.6002L20.1652 20.7854Z" fill="#009BA4"/>
<path d="M8.97363 19.7295C9.12103 19.6613 9.25303 19.5887 9.37403 19.5139C9.25303 19.5909 9.12103 19.6613 8.97363 19.7295Z" fill="#005079"/>
<path d="M21.2915 26.0215L12.4475 26.0963L9.66016 26.1183C11.8931 25.7641 13.1119 24.8445 14.0975 23.8479C15.0567 22.8777 16.1171 21.3025 20.1651 20.7855L20.5149 21.1331L22.4861 23.0977C23.5619 24.1691 22.8117 26.0083 21.2915 26.0215Z" fill="#007187"/>
</svg>
