<!DOCTYPE svg PUBLIC "-//W3C//DTD SVG 20010904//EN" "http://www.w3.org/TR/2001/REC-SVG-20010904/DTD/svg10.dtd">
<svg version="1.0" xmlns="http://www.w3.org/2000/svg" width="528px" height="201px" viewBox="0 0 5280 2010" preserveAspectRatio="xMidYMid meet">
<g id="layer1" fill="#000000" stroke="none">
 <path d="M2514 1919 c-4 -7 -14 -42 -23 -78 l-16 -66 -75 -6 c-41 -4 -150 -7 -242 -8 -136 -1 -252 -11 -615 -56 -247 -30 -509 -63 -583 -74 l-135 -19 -72 40 c-40 22 -78 36 -84 33 -6 -4 -9 -28 -7 -58 l3 -51 -165 -65 c-91 -36 -193 -84 -228 -105 -69 -43 -167 -148 -159 -170 3 -8 26 -43 52 -79 39 -54 70 -80 188 -161 l142 -96 293 -70 292 -69 306 -20 c168 -11 309 -23 315 -26 5 -4 18 -23 28 -44 14 -26 46 -55 108 -96 130 -88 219 -112 468 -122 l190 -8 3 -42 c3 -41 2 -42 -50 -70 -48 -25 -53 -31 -56 -66 -4 -50 6 -61 71 -76 45 -11 58 -11 90 2 59 25 79 107 32 129 -27 12 -29 25 -17 93 7 37 9 40 37 36 17 -2 143 0 282 4 l251 7 103 83 c93 76 108 85 173 99 102 23 533 91 723 116 101 13 266 45 435 85 l273 65 112 76 111 76 23 90 22 90 -93 93 c-67 67 -106 98 -139 110 -25 10 -57 24 -70 33 -54 33 -295 112 -363 119 -38 3 -71 10 -74 15 -3 5 -10 36 -14 70 -13 91 -21 92 -93 16 l-62 -67 -335 29 c-184 16 -465 42 -625 59 -249 26 -604 61 -627 61 -4 0 -23 31 -43 69 -37 74 -49 88 -61 70z m619 -1203 c14 -7 17 -18 15 -50 -3 -40 -4 -41 -48 -48 -60 -9 -1044 -9 -1095 0 -39 7 -40 9 -43 49 -3 46 -2 46 73 57 58 7 1080 0 1098 -8z"/>
 </g>

</svg>
